<svg version="1.1" id="Layer_1" xmlns="http://www.w3.org/2000/svg" xmlns:xlink="http://www.w3.org/1999/xlink" x="0px" y="0px"
	 width="100%" viewBox="0 0 837 138" enable-background="new 0 0 837 138" xml:space="preserve">
<path fill="#000000" opacity="1.000000" stroke="none" 
	d="
M526.000000,139.000000 
	C351.039734,139.000000 176.079468,139.000000 1.059597,139.000000 
	C1.059597,93.050240 1.059597,47.100384 1.059597,1.075262 
	C279.886444,1.075262 558.772949,1.075262 837.829712,1.075262 
	C837.829712,46.875477 837.829712,92.751793 837.829712,139.000000 
	C749.644409,139.000000 661.288269,139.000000 572.186768,138.700562 
	C572.426819,137.581009 573.333130,136.634384 574.410156,135.960648 
	C583.666138,130.170624 586.126953,121.024979 586.914612,110.532547 
	C586.992798,94.213791 587.021851,78.359764 586.957397,62.506111 
	C586.951538,61.057766 586.347839,59.611855 585.556763,58.093102 
	C578.797913,58.021393 572.504150,58.021393 566.260498,58.021393 
	C566.017944,60.324425 565.824768,62.158581 565.583984,64.444527 
	C555.008484,53.856586 533.677368,57.296112 526.503784,63.815403 
	C516.086182,73.282837 513.307007,92.383286 522.834534,104.856148 
	C527.090881,110.428329 532.512512,113.834869 538.887207,115.241722 
	C547.770813,117.202263 556.703979,116.932121 564.527283,110.762291 
	C565.443298,117.136444 559.464111,122.182007 555.244141,124.265381 
	C547.815063,127.933067 541.626038,123.957428 534.977661,122.870354 
	C532.400513,122.448952 529.010254,119.456825 527.731201,120.294350 
	C525.442627,121.792953 524.596558,125.386673 522.925110,127.960167 
	C520.243713,132.088562 519.241455,135.562210 525.473389,137.209961 
	C525.784851,137.292343 525.830566,138.380280 526.000000,139.000000 
M123.911949,106.953865 
	C133.284637,106.908882 142.657318,106.863907 152.772675,106.951027 
	C153.879166,106.648651 154.985672,106.346275 156.918762,105.992813 
	C157.894913,102.023727 154.673126,104.106491 153.702927,104.104134 
	C104.977783,103.985680 56.252300,103.991722 7.526912,104.040886 
	C6.070529,104.042351 4.614755,104.647415 3.017625,105.582291 
	C3.297397,106.067276 3.577168,106.552254 3.965470,107.805450 
	C6.213739,115.946281 8.841697,118.017342 17.008585,118.018616 
	C50.996399,118.023941 84.984215,118.020653 118.972031,118.020973 
	C127.802193,118.021057 136.632645,118.065567 145.462418,118.006721 
	C150.306000,117.974442 153.162720,115.966240 154.042984,112.695175 
	C149.506485,113.763199 144.719177,115.840614 139.918884,115.871094 
	C98.935226,116.131325 57.949215,116.013687 16.963917,116.029160 
	C12.324269,116.030907 8.743619,114.392792 6.980727,109.201767 
	C7.088863,108.465073 7.196999,107.728378 7.630952,107.042564 
	C7.630952,107.042564 7.919883,106.883614 8.871573,106.986366 
	C16.591642,106.928406 24.311710,106.870445 32.508118,106.922470 
	C32.508118,106.922470 32.974728,106.776627 33.907799,106.952934 
	C40.867779,106.969147 47.833927,106.827194 54.783974,107.098167 
	C56.862392,107.179214 58.895798,108.414627 60.900833,109.053238 
	C60.900833,109.053238 60.881882,109.134811 60.975136,109.803490 
	C61.918797,110.546211 62.862453,111.288933 64.279915,112.792381 
	C71.912674,112.859901 79.546539,113.029961 87.177666,112.947334 
	C90.495270,112.911407 93.807243,112.356133 97.761681,111.698769 
	C97.716850,111.238373 97.665085,110.373970 97.628174,110.374603 
	C87.709114,110.544945 77.791267,110.888794 67.872849,110.905525 
	C65.958900,110.908752 64.042793,109.637192 62.026268,108.305603 
	C62.359314,107.816719 62.692360,107.327843 63.949757,106.985153 
	C73.309692,106.928635 82.669632,106.872108 92.831932,106.948944 
	C97.461624,109.280563 102.110130,106.931221 106.750107,106.980232 
	C111.831947,107.033913 116.915985,106.881126 122.494034,106.926720 
	C122.655777,106.878052 122.817513,106.829376 123.911949,106.953865 
M624.929626,88.007431 
	C635.946472,87.953835 646.963379,87.900246 658.834229,87.645821 
	C658.834229,81.891159 658.834229,76.136497 658.834229,69.880905 
	C647.139160,69.880905 635.643555,69.880905 624.081177,69.880905 
	C624.081177,65.576645 624.081177,61.777161 623.992676,57.980976 
	C623.992676,57.980976 623.989990,58.069515 624.929077,58.007339 
	C636.124817,58.005077 647.320740,58.038158 658.515930,57.957024 
	C659.958313,57.946571 661.396362,57.344036 663.224121,56.250053 
	C663.094788,51.160488 662.965515,46.070927 662.572937,40.154827 
	C642.702393,40.104206 622.831909,40.044571 602.961365,40.046036 
	C602.358887,40.046082 601.756470,40.683804 601.017029,41.949551 
	C601.011353,66.151253 600.988708,90.352989 601.040527,114.554565 
	C601.043762,116.065529 601.630005,117.575249 602.345032,119.784012 
	C622.952698,119.784012 643.560425,119.784012 664.840820,119.784012 
	C664.840820,113.851196 664.840820,108.445778 664.988098,102.156456 
	C661.915894,101.770973 658.847595,101.093452 655.770874,101.053055 
	C645.233337,100.914734 634.692932,101.000008 624.081116,101.000008 
	C624.081116,96.238312 624.081116,92.107956 623.992615,87.980972 
	C623.992615,87.980972 623.990051,88.069519 624.929626,88.007431 
M167.014343,41.942715 
	C167.009552,66.135902 166.988358,90.329124 167.039322,114.522194 
	C167.042496,116.031792 167.611298,117.540192 168.329239,119.695076 
	C172.106186,119.463203 175.880142,119.129311 179.660645,119.018028 
	C192.556763,118.638428 205.872482,120.276154 218.267227,117.608688 
	C245.364410,111.777122 252.291550,89.787811 247.495361,69.672615 
	C243.329529,52.201046 228.161469,41.893204 209.625519,40.160088 
	C196.065933,40.107571 182.506348,40.042007 168.946777,40.045738 
	C168.345703,40.045906 167.744781,40.677708 167.014343,41.942715 
M155.836838,86.557625 
	C155.898788,62.814686 155.971191,39.071747 155.979797,15.328789 
	C155.980103,14.487547 155.348190,13.646077 154.743637,12.182279 
	C151.879074,9.782425 149.014526,7.382572 145.732208,4.190664 
	C145.240936,4.124135 144.749695,3.999447 144.258408,3.999368 
	C107.680267,3.993469 71.102104,3.988724 34.524040,4.041721 
	C33.403141,4.043346 32.283127,4.653682 31.020226,5.788405 
	C30.990376,7.155826 30.960526,8.523247 30.164656,10.251451 
	C26.334003,10.487783 22.504927,10.877426 18.672249,10.916855 
	C14.921654,10.955440 12.095858,12.012888 11.015514,16.953838 
	C11.058753,43.973854 11.101991,70.993866 11.199821,98.699844 
	C12.805393,100.080490 14.410965,101.461128 16.943642,102.990730 
	C58.192295,102.993599 99.440964,103.006905 140.689560,102.957565 
	C142.190536,102.955772 143.690796,102.338844 145.920959,102.016167 
	C147.240494,100.476173 149.363205,99.095818 149.707794,97.362053 
	C150.369507,94.032692 150.022949,90.502922 150.781296,86.999512 
	C152.193970,86.944237 153.606644,86.888962 155.836838,86.557625 
M808.152405,58.430077 
	C808.102661,77.952705 808.043762,97.475342 808.041382,116.997986 
	C808.041321,117.677528 808.604553,118.357140 809.301880,119.745811 
	C816.151672,119.371056 823.001404,118.996292 830.049866,118.610664 
	C830.049866,117.076462 830.049866,115.588341 830.821289,113.671364 
	C830.879883,97.753624 830.950134,81.835884 830.956665,65.918121 
	C830.956970,65.245476 830.365662,64.572586 830.033752,63.013203 
	C830.033752,61.440487 830.033752,59.867775 830.033752,58.165031 
	C822.686646,58.165031 815.831848,58.165031 808.152405,58.430077 
M506.084625,58.020416 
	C499.483429,58.020416 492.882263,58.020416 485.796509,58.020416 
	C485.796509,79.017899 485.796509,99.443687 485.796509,119.000984 
	C491.520111,119.000984 496.433807,118.999802 501.347504,119.001579 
	C503.273743,119.002281 505.199951,119.009644 507.872955,118.581795 
	C507.915131,99.223122 507.968872,79.864449 507.957611,60.505821 
	C507.957153,59.724865 507.342346,58.944267 506.084625,58.020416 
M732.848511,118.567368 
	C732.846924,106.037865 732.845337,93.508354 732.963135,80.199341 
	C732.645996,78.957108 732.370361,77.702530 732.004883,76.474686 
	C729.828735,69.163857 725.797058,63.854160 718.406128,60.564545 
	C709.058838,56.404148 699.492676,57.575974 690.077515,58.255112 
	C684.575562,58.651985 679.266541,61.723289 673.772156,63.625534 
	C676.649597,69.371948 679.043579,74.152809 680.875000,77.810211 
	C687.927307,76.480957 694.466858,74.760803 701.108398,74.149979 
	C706.469360,73.656929 709.838623,77.639145 709.585205,83.001045 
	C706.291199,83.001045 702.945984,82.700760 699.675659,83.067757 
	C694.030090,83.701302 688.399536,84.586266 682.820740,85.665749 
	C676.158020,86.954964 672.791687,91.721764 672.084961,97.981728 
	C671.291504,105.010231 672.275452,111.690079 679.080444,116.075653 
	C687.531433,121.522026 702.371033,122.441116 711.632446,114.485191 
	C712.281799,119.694542 712.824341,120.287109 716.305298,120.000648 
	C721.541748,119.569733 726.784851,119.219307 732.848511,118.567368 
M445.603516,40.156555 
	C430.533478,40.156555 415.463409,40.156555 400.288513,40.156555 
	C400.170441,40.809643 400.015106,41.268349 400.014893,41.727131 
	C400.001892,66.481911 399.991211,91.236717 400.038910,115.991402 
	C400.040863,117.007462 400.603790,118.022438 401.344116,119.775146 
	C405.925293,119.516739 410.504761,119.079948 415.088013,119.035316 
	C426.246002,118.926651 437.410156,119.180702 448.562439,118.906616 
	C452.739044,118.803970 457.064484,118.168396 461.015472,116.854103 
	C469.143463,114.150352 475.165924,108.673645 475.820099,99.824677 
	C476.456512,91.215981 473.211609,83.898743 464.721558,79.899414 
	C463.954681,79.538162 463.472504,78.572456 462.787781,77.809044 
	C463.507050,77.124786 463.936890,76.613304 464.461426,76.232254 
	C472.731995,70.224022 474.903107,56.961292 467.156403,49.420490 
	C461.063049,43.489086 454.112823,41.173271 445.603516,40.156555 
M307.012726,94.002274 
	C311.627747,94.002274 316.242767,94.002274 320.703033,94.002274 
	C323.511780,83.719543 318.553040,70.911125 310.385651,64.642601 
	C304.392395,60.042740 298.054840,58.227203 290.482819,57.750790 
	C278.452026,56.993832 268.691864,59.880798 260.934998,69.472595 
	C250.315918,82.603699 253.439072,108.136124 271.406464,116.177498 
	C279.486755,119.793861 287.639862,121.001068 296.413269,120.093155 
	C304.481323,119.258240 311.383728,116.603233 317.051208,110.395325 
	C313.739136,107.142479 310.580566,104.179466 307.592010,101.053894 
	C305.751099,99.128586 304.512787,98.435089 301.845337,100.424416 
	C296.074585,104.728111 289.448425,105.208015 283.048615,101.844589 
	C280.800293,100.662994 279.273529,98.108429 277.417297,96.180771 
	C277.743500,95.453453 278.069702,94.726128 278.395935,93.998810 
	C283.443817,93.998810 288.491699,93.994781 293.539581,94.000061 
	C297.729645,94.004440 301.919708,94.019775 307.012726,94.002274 
M760.501221,58.000637 
	C754.738342,58.000637 748.975464,58.000637 743.354858,58.000637 
	C743.354858,63.725815 743.354858,68.796066 743.354858,74.323792 
	C752.093323,74.323792 760.477417,74.323792 769.207520,74.323792 
	C768.751343,75.258400 768.627869,75.741135 768.335510,76.076729 
	C761.326355,84.122139 754.227722,92.090973 747.313171,100.216537 
	C744.822571,103.143456 742.086365,106.080917 742.952209,110.599640 
	C743.499207,113.453964 742.881287,116.790878 744.193237,119.117790 
	C744.756287,120.116447 748.892822,119.017220 751.406006,119.012909 
	C767.055542,118.986046 782.705017,118.999374 799.144043,118.999374 
	C799.438354,115.495102 799.579712,112.135033 800.033081,108.817596 
	C800.666077,104.186066 798.913330,102.653481 794.216797,102.898911 
	C786.871338,103.282768 779.491028,103.000641 770.647400,103.000641 
	C778.694153,93.816864 785.486816,85.639633 792.754456,77.908905 
	C798.222656,72.092255 801.367065,66.136208 797.289612,58.000637 
	C785.461060,58.000637 773.480835,58.000637 760.501221,58.000637 
M356.032928,88.378838 
	C351.930634,78.249741 347.828339,68.120651 343.863190,58.330227 
	C336.254578,58.330227 329.195221,58.330227 321.467957,58.330227 
	C324.783569,66.422363 327.890411,73.998833 330.992401,81.577255 
	C335.643280,92.939651 340.306641,104.296974 344.926483,115.671967 
	C345.864380,117.981209 346.709442,119.951714 349.937927,119.635246 
	C354.520752,119.186020 359.477844,118.052841 363.678070,119.270668 
	C369.792725,121.043556 370.484802,117.287590 372.009796,113.561874 
	C376.977295,101.425499 382.010956,89.316132 386.956635,77.170906 
	C389.474731,70.987129 391.859100,64.748894 394.513885,58.001633 
	C388.558014,58.001633 383.538300,58.380077 378.604828,57.889984 
	C374.111542,57.443615 372.394318,59.413094 370.914246,63.262756 
	C367.089539,73.210846 362.816254,82.986465 358.513702,93.332100 
	C357.518311,91.636444 356.787354,90.391296 356.032928,88.378838 
M806.033875,42.937855 
	C807.444458,48.369057 811.677673,50.660419 816.553589,51.720734 
	C821.227905,52.737221 825.844666,51.783001 829.200012,48.189301 
	C831.844666,45.356754 833.860535,42.085007 832.302246,37.649357 
	C830.019531,31.151308 824.145813,27.918770 815.750244,29.002634 
	C808.650330,29.919228 805.999878,33.480217 806.033875,42.937855 
M489.605408,50.155678 
	C490.937164,50.712894 492.224060,51.447140 493.608154,51.797764 
	C500.978546,53.664879 509.796112,47.809521 509.998169,40.989967 
	C510.178253,34.912071 507.428009,31.396244 500.978271,29.459293 
	C494.691315,27.571236 487.644501,29.494347 485.015869,33.815495 
	C481.401581,39.756973 482.531342,44.539886 489.605408,50.155678 
z"/>
<path fill="#43A6FF" opacity="1.000000" stroke="none" 
	d="
M526.468628,139.000000 
	C525.830566,138.380280 525.784851,137.292343 525.473389,137.209961 
	C519.241455,135.562210 520.243713,132.088562 522.925110,127.960167 
	C524.596558,125.386673 525.442627,121.792953 527.731201,120.294350 
	C529.010254,119.456825 532.400513,122.448952 534.977661,122.870354 
	C541.626038,123.957428 547.815063,127.933067 555.244141,124.265381 
	C559.464111,122.182007 565.443298,117.136444 564.527283,110.762291 
	C556.703979,116.932121 547.770813,117.202263 538.887207,115.241722 
	C532.512512,113.834869 527.090881,110.428329 522.834534,104.856148 
	C513.307007,92.383286 516.086182,73.282837 526.503784,63.815403 
	C533.677368,57.296112 555.008484,53.856586 565.583984,64.444527 
	C565.824768,62.158581 566.017944,60.324425 566.260498,58.021393 
	C572.504150,58.021393 578.797913,58.021393 585.551147,58.550991 
	C586.008240,74.651596 585.979736,90.222694 586.040405,105.793457 
	C586.047180,107.529106 586.561157,109.262787 586.839966,110.997375 
	C586.126953,121.024979 583.666138,130.170624 574.410156,135.960648 
	C573.333130,136.634384 572.426819,137.581009 571.720703,138.700562 
	C556.979126,139.000000 541.958191,139.000000 526.468628,139.000000 
M564.999268,87.315964 
	C564.991028,81.933418 562.888000,78.192513 557.667908,75.832336 
	C552.476074,73.484917 546.878845,74.328796 543.428711,76.959381 
	C537.976257,81.116577 538.206299,93.856079 545.375366,97.189873 
	C553.817627,101.115768 561.511658,97.964035 564.999268,87.315964 
z"/>
<path fill="#43A5FF" opacity="1.000000" stroke="none" 
	d="
M446.039185,40.906555 
	C454.112823,41.173271 461.063049,43.489086 467.156403,49.420490 
	C474.903107,56.961292 472.731995,70.224022 464.461426,76.232254 
	C463.936890,76.613304 463.507050,77.124786 462.787781,77.809044 
	C463.472504,78.572456 463.954681,79.538162 464.721558,79.899414 
	C473.211609,83.898743 476.456512,91.215981 475.820099,99.824677 
	C475.165924,108.673645 469.143463,114.150352 461.015472,116.854103 
	C457.064484,118.168396 452.739044,118.803970 448.562439,118.906616 
	C437.410156,119.180702 426.246002,118.926651 415.088013,119.035316 
	C410.504761,119.079948 405.925293,119.516739 401.158752,118.938248 
	C400.973419,92.555626 400.973419,67.009903 400.973419,40.906555 
	C416.500946,40.906555 431.270050,40.906555 446.039185,40.906555 
M422.986542,71.013512 
	C422.986542,71.013512 422.983429,70.918022 423.482788,71.608170 
	C429.630096,71.461906 435.777374,71.315636 442.650604,70.995148 
	C452.372589,65.488785 448.835052,60.703869 442.744202,57.273903 
	C442.462341,57.115173 442.170868,56.973560 441.246307,56.335361 
	C435.158600,56.584282 429.070892,56.833202 422.986359,56.986279 
	C422.986359,56.986279 423.082214,56.983349 422.395844,57.478600 
	C422.624573,61.991219 422.853302,66.503830 422.986542,71.013512 
M426.664062,102.999962 
	C432.360504,102.997368 438.057068,103.012436 443.753387,102.985725 
	C447.302246,102.969086 451.893372,98.652611 451.999451,95.290573 
	C452.149231,90.544075 450.098755,88.219299 444.847382,88.054726 
	C437.737274,87.831909 430.614960,87.999321 423.010834,87.999321 
	C423.010834,92.574448 422.893982,96.854752 423.131226,101.115326 
	C423.168732,101.788765 424.805328,102.373154 426.664062,102.999962 
z"/>
<path fill="#43A5FF" opacity="1.000000" stroke="none" 
	d="
M210.054398,40.917778 
	C228.161469,41.893204 243.329529,52.201046 247.495361,69.672615 
	C252.291550,89.787811 245.364410,111.777122 218.267227,117.608688 
	C205.872482,120.276154 192.556763,118.638428 179.660645,119.018028 
	C175.880142,119.129311 172.106186,119.463203 168.152695,118.902748 
	C168.028687,92.432755 168.081207,66.755081 168.589935,41.046520 
	C182.715561,40.983013 196.384979,40.950397 210.054398,40.917778 
M190.281036,101.722260 
	C196.745026,101.138992 203.225342,100.695053 209.669098,99.939285 
	C218.957520,98.849869 224.571915,89.055283 225.048706,82.946609 
	C226.100555,69.470474 221.034729,63.019329 211.658127,60.331085 
	C204.909805,58.396358 197.325439,59.377705 189.557724,58.728401 
	C189.403152,72.394211 189.241959,86.059975 189.125793,99.726097 
	C189.122284,100.138107 189.589188,100.554108 190.281036,101.722260 
z"/>
<path fill="#42A5FF" opacity="1.000000" stroke="none" 
	d="
M664.840820,103.040359 
	C664.840820,108.445778 664.840820,113.851196 664.840820,119.784012 
	C643.560425,119.784012 622.952698,119.784012 602.163635,118.961769 
	C602.015503,92.463310 602.048767,66.787094 602.541870,41.069069 
	C622.946594,41.011963 642.891357,40.996662 662.836182,40.981361 
	C662.965515,46.070927 663.094788,51.160488 662.572327,56.627457 
	C650.966370,57.002625 640.011780,56.954803 629.058411,57.046074 
	C627.366211,57.060177 625.679321,57.712399 623.989990,58.069515 
	C623.989990,58.069515 623.992676,57.980976 623.667786,58.197327 
	C623.342896,62.474106 623.342896,66.534538 623.342896,71.076294 
	C635.018494,71.076294 646.243774,71.076294 657.891479,71.076294 
	C657.891479,76.661110 657.891479,81.764969 657.433472,86.915665 
	C647.505310,86.974335 638.034729,86.938980 628.565735,87.045731 
	C627.036865,87.062958 625.515076,87.712341 623.990051,88.069519 
	C623.990051,88.069519 623.992615,87.980972 623.666992,88.198441 
	C623.341370,92.810188 623.341370,97.204475 623.341370,102.000282 
	C635.570496,102.000282 647.343079,101.953995 659.114563,102.046860 
	C661.025818,102.061928 662.932190,102.693665 664.840820,103.040359 
z"/>
<path fill="#44A6FF" opacity="1.000000" stroke="none" 
	d="
M306.561249,94.016266 
	C301.919708,94.019775 297.729645,94.004440 293.539581,94.000061 
	C288.491699,93.994781 283.443817,93.998810 278.395935,93.998810 
	C278.069702,94.726128 277.743500,95.453453 277.417297,96.180771 
	C279.273529,98.108429 280.800293,100.662994 283.048615,101.844589 
	C289.448425,105.208015 296.074585,104.728111 301.845337,100.424416 
	C304.512787,98.435089 305.751099,99.128586 307.592010,101.053894 
	C310.580566,104.179466 313.739136,107.142479 317.051208,110.395325 
	C311.383728,116.603233 304.481323,119.258240 296.413269,120.093155 
	C287.639862,121.001068 279.486755,119.793861 271.406464,116.177498 
	C253.439072,108.136124 250.315918,82.603699 260.934998,69.472595 
	C268.691864,59.880798 278.452026,56.993832 290.482819,57.750790 
	C298.054840,58.227203 304.392395,60.042740 310.385651,64.642601 
	C318.553040,70.911125 323.511780,83.719543 320.703033,94.002274 
	C316.242767,94.002274 311.627747,94.002274 306.561249,94.016266 
M299.936707,79.506508 
	C290.485748,69.948608 281.690796,70.826782 276.780151,82.406967 
	C284.158325,82.602280 291.536285,82.843864 298.915100,82.871239 
	C299.332153,82.872787 299.755768,81.114998 299.936707,79.506508 
z"/>
<path fill="#44A6FF" opacity="1.000000" stroke="none" 
	d="
M732.025085,118.834671 
	C726.784851,119.219307 721.541748,119.569733 716.305298,120.000648 
	C712.824341,120.287109 712.281799,119.694542 711.632446,114.485191 
	C702.371033,122.441116 687.531433,121.522026 679.080444,116.075653 
	C672.275452,111.690079 671.291504,105.010231 672.084961,97.981728 
	C672.791687,91.721764 676.158020,86.954964 682.820740,85.665749 
	C688.399536,84.586266 694.030090,83.701302 699.675659,83.067757 
	C702.945984,82.700760 706.291199,83.001045 709.585205,83.001045 
	C709.838623,77.639145 706.469360,73.656929 701.108398,74.149979 
	C694.466858,74.760803 687.927307,76.480957 680.875000,77.810211 
	C679.043579,74.152809 676.649597,69.371948 673.772156,63.625534 
	C679.266541,61.723289 684.575562,58.651985 690.077515,58.255112 
	C699.492676,57.575974 709.058838,56.404148 718.406128,60.564545 
	C725.797058,63.854160 729.828735,69.163857 732.004883,76.474686 
	C732.370361,77.702530 732.645996,78.957108 732.602539,80.884842 
	C732.169678,93.991791 732.097351,106.413231 732.025085,118.834671 
M707.965149,103.514984 
	C709.228760,100.971581 710.492371,98.428177 712.194702,95.001701 
	C706.740906,95.001701 702.939026,94.883995 699.148376,95.038712 
	C696.081116,95.163895 693.495972,96.672234 693.732056,99.957321 
	C693.878052,101.990265 695.126709,104.614052 696.740295,105.736885 
	C700.503418,108.355492 703.966919,105.776497 707.965149,103.514984 
z"/>
<path fill="#43A5FF" opacity="1.000000" stroke="none" 
	d="
M761.000916,58.000637 
	C773.480835,58.000637 785.461060,58.000637 797.289612,58.000637 
	C801.367065,66.136208 798.222656,72.092255 792.754456,77.908905 
	C785.486816,85.639633 778.694153,93.816864 770.647400,103.000641 
	C779.491028,103.000641 786.871338,103.282768 794.216797,102.898911 
	C798.913330,102.653481 800.666077,104.186066 800.033081,108.817596 
	C799.579712,112.135033 799.438354,115.495102 799.144043,118.999374 
	C782.705017,118.999374 767.055542,118.986046 751.406006,119.012909 
	C748.892822,119.017220 744.756287,120.116447 744.193237,119.117790 
	C742.881287,116.790878 743.499207,113.453964 742.952209,110.599640 
	C742.086365,106.080917 744.822571,103.143456 747.313171,100.216537 
	C754.227722,92.090973 761.326355,84.122139 768.335510,76.076729 
	C768.627869,75.741135 768.751343,75.258400 769.207520,74.323792 
	C760.477417,74.323792 752.093323,74.323792 743.354858,74.323792 
	C743.354858,68.796066 743.354858,63.725815 743.354858,58.000637 
	C748.975464,58.000637 754.738342,58.000637 761.000916,58.000637 
z"/>
<path fill="#44A6FF" opacity="1.000000" stroke="none" 
	d="
M356.044678,88.762497 
	C356.787354,90.391296 357.518311,91.636444 358.513702,93.332100 
	C362.816254,82.986465 367.089539,73.210846 370.914246,63.262756 
	C372.394318,59.413094 374.111542,57.443615 378.604828,57.889984 
	C383.538300,58.380077 388.558014,58.001633 394.513885,58.001633 
	C391.859100,64.748894 389.474731,70.987129 386.956635,77.170906 
	C382.010956,89.316132 376.977295,101.425499 372.009796,113.561874 
	C370.484802,117.287590 369.792725,121.043556 363.678070,119.270668 
	C359.477844,118.052841 354.520752,119.186020 349.937927,119.635246 
	C346.709442,119.951714 345.864380,117.981209 344.926483,115.671967 
	C340.306641,104.296974 335.643280,92.939651 330.992401,81.577255 
	C327.890411,73.998833 324.783569,66.422363 321.467957,58.330227 
	C329.195221,58.330227 336.254578,58.330227 343.863190,58.330227 
	C347.828339,68.120651 351.930634,78.249741 356.044678,88.762497 
z"/>
<path fill="#69D4D9" opacity="1.000000" stroke="none" 
	d="
M16.016537,102.841774 
	C14.410965,101.461128 12.805393,100.080490 11.464695,98.054871 
	C11.823901,96.758507 12.000396,96.107162 12.000714,95.455734 
	C12.013012,70.224564 12.021224,44.993362 11.971636,19.762278 
	C11.969188,18.517260 11.444184,17.273272 11.162505,16.028803 
	C12.095858,12.012888 14.921654,10.955440 18.672249,10.916855 
	C22.504927,10.877426 26.334003,10.487783 30.823467,10.398743 
	C33.286560,10.702824 35.090721,10.994736 36.895138,10.996320 
	C68.539825,11.024109 100.185158,11.134591 131.829056,10.973106 
	C151.542984,10.872501 149.009811,11.333062 149.044815,28.434195 
	C149.081299,46.255093 149.024490,64.076241 149.098404,81.896904 
	C149.105545,83.618050 149.747421,85.336555 150.094635,87.056290 
	C150.022949,90.502922 150.369507,94.032692 149.707794,97.362053 
	C149.363205,99.095818 147.240494,100.476173 145.074158,101.987000 
	C103.403763,101.969460 62.580170,101.969643 21.756657,102.028687 
	C19.842896,102.031448 17.929893,102.558754 16.016537,102.841774 
M79.905113,21.991108 
	C80.136612,22.158539 80.368111,22.325970 80.599609,22.493402 
	C80.709511,22.006733 80.819405,21.520063 81.520782,20.769552 
	C82.079338,20.114630 82.637886,19.459709 83.780891,19.136889 
	C86.977097,18.585720 87.171524,18.166958 86.345306,13.398806 
	C82.376396,13.398806 78.384895,13.398806 73.190323,13.398806 
	C74.243546,16.069662 75.007988,18.008192 75.821533,20.588444 
	C75.816956,21.318333 75.812386,22.048223 75.807808,22.778112 
	C76.740746,22.613373 77.673676,22.448633 79.017227,22.013491 
	C79.017227,22.013491 79.433380,21.751692 79.905113,21.991108 
M141.576645,93.502106 
	C141.717163,92.863380 141.979858,92.224785 141.980545,91.585915 
	C142.005005,68.736557 142.019180,45.887154 141.960907,23.037939 
	C141.958344,22.035400 141.261551,21.034630 140.424576,19.920204 
	C140.124847,19.738661 139.972443,19.472696 139.439575,18.469717 
	C123.168991,18.315357 106.898521,18.147131 90.627701,18.023827 
	C88.545372,18.008047 87.188728,18.657972 88.979492,21.770056 
	C86.359802,27.640408 81.177307,24.245386 77.168762,24.930351 
	C73.746750,25.515089 71.874374,23.702999 71.825539,19.307419 
	C70.521767,18.871689 69.220398,18.065493 67.913849,18.056980 
	C53.308350,17.961821 38.701893,17.959503 24.096220,18.034416 
	C22.740112,18.041370 21.387600,18.748724 20.004993,20.049850 
	C19.700411,27.357185 19.395826,34.664520 19.012787,42.908043 
	C19.038931,56.948078 19.065075,70.988113 19.013233,85.846107 
	C19.350153,88.520325 19.687071,91.194550 20.466379,94.599678 
	C21.440645,94.735954 22.414846,94.990860 23.389187,94.991386 
	C61.240349,95.011795 99.091530,95.020470 136.942612,94.962746 
	C138.305161,94.960670 139.666641,94.274002 141.023422,94.023376 
	C141.023422,94.023376 140.906418,94.028572 141.576645,93.502106 
M18.006210,96.052635 
	C18.006210,96.052635 17.992149,96.138412 17.858221,95.296188 
	C17.612629,94.178703 17.154785,93.061615 17.152727,91.943680 
	C17.110008,68.743195 17.074203,45.542374 17.205425,22.342564 
	C17.215599,20.543917 18.469671,18.752306 20.039375,16.979519 
	C23.681747,15.926306 28.870010,19.637432 31.095369,14.217080 
	C30.940590,13.511923 30.785810,12.806767 30.631031,12.101609 
	C25.424841,13.122796 20.218653,14.143983 15.114499,15.028248 
	C15.114499,15.028248 15.251328,15.130409 14.633814,15.017492 
	C14.374490,15.333233 14.115167,15.648973 13.296255,16.593199 
	C13.195712,17.243933 13.007671,17.894611 13.007249,18.545410 
	C12.990904,43.755962 12.979752,68.966545 13.025849,94.177010 
	C13.028131,95.424942 13.548668,96.671921 14.086662,98.549118 
	C15.033613,99.078163 15.980564,99.607216 17.556091,100.707359 
	C18.209309,100.806648 18.862494,100.992592 19.515747,100.992844 
	C59.778385,101.008293 100.041031,101.016335 140.303619,100.973732 
	C141.551163,100.972420 142.798157,100.431686 144.729156,99.765785 
	C145.459915,95.536064 146.190689,91.306335 147.012772,86.135452 
	C147.025208,63.834740 146.976929,41.533691 147.101334,19.233606 
	C147.126221,14.771249 145.441772,12.932050 140.921448,12.969638 
	C125.112221,13.101098 109.300812,12.970593 93.491600,13.103431 
	C92.029274,13.115717 90.576714,14.290572 89.119621,14.925611 
	C90.527054,15.611036 91.928627,16.877890 93.342827,16.892141 
	C107.820274,17.038063 122.299782,16.972204 136.778702,16.983858 
	C143.262222,16.989075 143.928787,17.665058 143.947754,24.138735 
	C144.009232,45.105873 144.064011,66.073036 144.016266,87.889183 
	C143.383484,90.603790 142.750687,93.318398 141.167160,95.973289 
	C100.084595,95.997978 59.002022,96.022667 18.006210,96.052635 
z"/>
<path fill="#42A5FF" opacity="1.000000" stroke="none" 
	d="
M507.126190,119.013977 
	C505.199951,119.009644 503.273743,119.002281 501.347504,119.001579 
	C496.433807,118.999802 491.520111,119.000984 485.796509,119.000984 
	C485.796509,99.443687 485.796509,79.017899 485.796509,58.020416 
	C492.882263,58.020416 499.483429,58.020416 506.544952,58.549782 
	C507.045593,79.057426 507.085876,99.035698 507.126190,119.013977 
z"/>
<path fill="#44A6FF" opacity="1.000000" stroke="none" 
	d="
M830.049866,114.100227 
	C830.049866,115.588341 830.049866,117.076462 830.049866,118.610664 
	C823.001404,118.996292 816.151672,119.371056 809.136902,118.923019 
	C808.973633,98.121826 808.975342,78.143433 808.977051,58.165031 
	C815.831848,58.165031 822.686646,58.165031 830.033752,58.165031 
	C830.033752,59.867775 830.033752,61.440487 829.971008,63.926659 
	C829.955444,81.260155 830.002625,97.680191 830.049866,114.100227 
z"/>
<path fill="#43A6FE" opacity="1.000000" stroke="none" 
	d="
M150.437958,87.027901 
	C149.747421,85.336555 149.105545,83.618050 149.098404,81.896904 
	C149.024490,64.076241 149.081299,46.255093 149.044815,28.434195 
	C149.009811,11.333062 151.542984,10.872501 131.829056,10.973106 
	C100.185158,11.134591 68.539825,11.024109 36.895138,10.996320 
	C35.090721,10.994736 33.286560,10.702824 31.206478,10.218349 
	C30.960526,8.523247 30.990376,7.155826 31.549368,5.389473 
	C70.102325,4.987933 108.126144,4.985324 146.149963,4.982717 
	C149.014526,7.382572 151.879074,9.782425 154.855682,12.976543 
	C154.984940,38.125099 155.002136,62.479389 155.019318,86.833679 
	C153.606644,86.888962 152.193970,86.944237 150.437958,87.027901 
z"/>
<path fill="#45A6FF" opacity="1.000000" stroke="none" 
	d="
M806.019775,42.516411 
	C805.999878,33.480217 808.650330,29.919228 815.750244,29.002634 
	C824.145813,27.918770 830.019531,31.151308 832.302246,37.649357 
	C833.860535,42.085007 831.844666,45.356754 829.200012,48.189301 
	C825.844666,51.783001 821.227905,52.737221 816.553589,51.720734 
	C811.677673,50.660419 807.444458,48.369057 806.019775,42.516411 
z"/>
<path fill="#44A6FF" opacity="1.000000" stroke="none" 
	d="
M489.220673,50.071838 
	C482.531342,44.539886 481.401581,39.756973 485.015869,33.815495 
	C487.644501,29.494347 494.691315,27.571236 500.978271,29.459293 
	C507.428009,31.396244 510.178253,34.912071 509.998169,40.989967 
	C509.796112,47.809521 500.978546,53.664879 493.608154,51.797764 
	C492.224060,51.447140 490.937164,50.712894 489.220673,50.071838 
z"/>
<path fill="#7EE1D6" opacity="1.000000" stroke="none" 
	d="
M6.823814,109.931374 
	C8.743619,114.392792 12.324269,116.030907 16.963917,116.029160 
	C57.949215,116.013687 98.935226,116.131325 139.918884,115.871094 
	C144.719177,115.840614 149.506485,113.763199 154.042984,112.695175 
	C153.162720,115.966240 150.306000,117.974442 145.462418,118.006721 
	C136.632645,118.065567 127.802193,118.021057 118.972031,118.020973 
	C84.984215,118.020653 50.996399,118.023941 17.008585,118.018616 
	C8.841697,118.017342 6.213739,115.946281 4.230585,107.403236 
	C4.921655,106.981056 5.347609,106.961090 5.838337,107.265579 
	C6.210011,108.370476 6.516913,109.150925 6.823814,109.931374 
z"/>
<path fill="#DAF6F3" opacity="1.000000" stroke="none" 
	d="
M3.158696,104.971054 
	C4.614755,104.647415 6.070529,104.042351 7.526912,104.040886 
	C56.252300,103.991722 104.977783,103.985680 153.702927,104.104134 
	C154.673126,104.106491 157.894913,102.023727 156.227661,105.688873 
	C144.356415,105.259132 133.176270,105.133339 121.527710,105.006256 
	C103.414520,105.004478 85.769638,104.975708 68.125168,105.048813 
	C66.425369,105.055862 64.728188,105.695618 62.641346,105.871414 
	C60.476467,105.468430 58.700703,105.039299 56.923508,105.033302 
	C39.002037,104.972839 21.080334,104.981689 3.158696,104.971054 
z"/>
<path fill="#B6EDE7" opacity="1.000000" stroke="none" 
	d="
M16.480089,102.916252 
	C17.929893,102.558754 19.842896,102.031448 21.756657,102.028687 
	C62.580170,101.969643 103.403763,101.969460 144.709366,101.983215 
	C143.690796,102.338844 142.190536,102.955772 140.689560,102.957565 
	C99.440964,103.006905 58.192295,102.993599 16.480089,102.916252 
z"/>
<path fill="#A1D2FF" opacity="1.000000" stroke="none" 
	d="
M445.821350,40.531555 
	C431.270050,40.906555 416.500946,40.906555 400.973419,40.906555 
	C400.973419,67.009903 400.973419,92.555626 400.939392,118.569626 
	C400.603790,118.022438 400.040863,117.007462 400.038910,115.991402 
	C399.991211,91.236717 400.001892,66.481911 400.014893,41.727131 
	C400.015106,41.268349 400.170441,40.809643 400.288513,40.156555 
	C415.463409,40.156555 430.533478,40.156555 445.821350,40.531555 
z"/>
<path fill="#D0E8FF" opacity="1.000000" stroke="none" 
	d="
M145.941086,4.586690 
	C108.126144,4.985324 70.102325,4.987933 31.620605,4.985385 
	C32.283127,4.653682 33.403141,4.043346 34.524040,4.041721 
	C71.102104,3.988724 107.680267,3.993469 144.258408,3.999368 
	C144.749695,3.999447 145.240936,4.124135 145.941086,4.586690 
z"/>
<path fill="#6DD9CD" opacity="1.000000" stroke="none" 
	d="
M63.029797,106.041656 
	C64.728188,105.695618 66.425369,105.055862 68.125168,105.048813 
	C85.769638,104.975708 103.414520,105.004478 121.527954,105.308014 
	C121.997437,106.013489 121.998253,106.415901 121.999062,106.818314 
	C116.915985,106.881126 111.831947,107.033913 106.750107,106.980232 
	C102.110130,106.931221 97.461624,109.280563 92.105766,106.617599 
	C81.912971,106.184097 72.446342,106.081955 62.992790,105.994644 
	C63.005867,106.009468 63.029797,106.041656 63.029797,106.041656 
z"/>
<path fill="#B5EDE7" opacity="1.000000" stroke="none" 
	d="
M11.089010,16.491322 
	C11.444184,17.273272 11.969188,18.517260 11.971636,19.762278 
	C12.021224,44.993362 12.013012,70.224564 12.000714,95.455734 
	C12.000396,96.107162 11.823901,96.758507 11.437399,97.711884 
	C11.101991,70.993866 11.058753,43.973854 11.089010,16.491322 
z"/>
<path fill="#71BBFF" opacity="1.000000" stroke="none" 
	d="
M602.082031,41.110874 
	C602.048767,66.787094 602.015503,92.463310 601.963623,118.612534 
	C601.630005,117.575249 601.043762,116.065529 601.040527,114.554565 
	C600.988708,90.352989 601.011353,66.151253 601.318420,41.498615 
	C601.619812,41.047680 602.082031,41.110874 602.082031,41.110874 
z"/>
<path fill="#94CCFF" opacity="1.000000" stroke="none" 
	d="
M168.133728,41.077412 
	C168.081207,66.755081 168.028687,92.432755 167.946548,118.579788 
	C167.611298,117.540192 167.042496,116.031792 167.039322,114.522194 
	C166.988358,90.329124 167.009552,66.135902 167.326935,41.488251 
	C167.639526,41.033783 168.133728,41.077412 168.133728,41.077412 
z"/>
<path fill="#73BDFF" opacity="1.000000" stroke="none" 
	d="
M155.428070,86.695648 
	C155.002136,62.479389 154.984940,38.125099 154.989349,13.287760 
	C155.348190,13.646077 155.980103,14.487547 155.979797,15.328789 
	C155.971191,39.071747 155.898788,62.814686 155.428070,86.695648 
z"/>
<path fill="#6DDBCE" opacity="1.000000" stroke="none" 
	d="
M3.088160,105.276672 
	C21.080334,104.981689 39.002037,104.972839 56.923508,105.033302 
	C58.700703,105.039299 60.476467,105.468430 62.641346,105.871414 
	C63.029797,106.041656 63.005867,106.009468 63.002335,106.209557 
	C62.998802,106.409645 63.025406,106.838959 63.025406,106.838959 
	C62.692360,107.327843 62.359314,107.816719 61.764374,108.666992 
	C61.295620,109.063858 61.088753,109.099335 60.881882,109.134811 
	C60.881882,109.134811 60.900833,109.053238 60.944366,108.662369 
	C60.460896,107.552139 59.927448,106.202019 59.407837,106.207329 
	C50.595779,106.297272 41.785446,106.555550 32.974728,106.776627 
	C32.974728,106.776627 32.508118,106.922470 31.943172,106.605072 
	C23.558779,106.486313 15.739330,106.684967 7.919883,106.883614 
	C7.919883,106.883614 7.630952,107.042564 7.086205,106.958755 
	C6.285492,106.897018 6.029528,106.919075 5.773564,106.941124 
	C5.347609,106.961090 4.921655,106.981056 4.176320,107.019135 
	C3.577168,106.552254 3.297397,106.067276 3.088160,105.276672 
z"/>
<path fill="#D0E9FF" opacity="1.000000" stroke="none" 
	d="
M657.891479,86.868835 
	C657.891479,81.764969 657.891479,76.661110 657.891479,71.076294 
	C646.243774,71.076294 635.018494,71.076294 623.342896,71.076294 
	C623.342896,66.534538 623.342896,62.474106 623.712036,58.195679 
	C624.081177,61.777161 624.081177,65.576645 624.081177,69.880905 
	C635.643555,69.880905 647.139160,69.880905 658.834229,69.880905 
	C658.834229,76.136497 658.834229,81.891159 658.394836,87.500923 
	C657.955444,87.356026 657.891479,86.868835 657.891479,86.868835 
z"/>
<path fill="#A1D2FF" opacity="1.000000" stroke="none" 
	d="
M602.541870,41.069069 
	C602.082031,41.110874 601.619812,41.047680 601.386902,41.035954 
	C601.756470,40.683804 602.358887,40.046082 602.961365,40.046036 
	C622.831909,40.044571 642.702393,40.104206 662.704590,40.568096 
	C642.891357,40.996662 622.946594,41.011963 602.541870,41.069069 
z"/>
<path fill="#D0E8FF" opacity="1.000000" stroke="none" 
	d="
M507.499573,118.797882 
	C507.085876,99.035698 507.045593,79.057426 507.009521,58.621326 
	C507.342346,58.944267 507.957153,59.724865 507.957611,60.505821 
	C507.968872,79.864449 507.915131,99.223122 507.499573,118.797882 
z"/>
<path fill="#A0D2FF" opacity="1.000000" stroke="none" 
	d="
M808.564697,58.297554 
	C808.975342,78.143433 808.973633,98.121826 808.938599,118.568481 
	C808.604553,118.357140 808.041321,117.677528 808.041382,116.997986 
	C808.043762,97.475342 808.102661,77.952705 808.564697,58.297554 
z"/>
<path fill="#D0E9FF" opacity="1.000000" stroke="none" 
	d="
M664.914429,102.598404 
	C662.932190,102.693665 661.025818,102.061928 659.114563,102.046860 
	C647.343079,101.953995 635.570496,102.000282 623.341370,102.000282 
	C623.341370,97.204475 623.341370,92.810188 623.711243,88.196754 
	C624.081116,92.107956 624.081116,96.238312 624.081116,101.000008 
	C634.692932,101.000008 645.233337,100.914734 655.770874,101.053055 
	C658.847595,101.093452 661.915894,101.770973 664.914429,102.598404 
z"/>
<path fill="#A0D2FF" opacity="1.000000" stroke="none" 
	d="
M586.914612,110.532547 
	C586.561157,109.262787 586.047180,107.529106 586.040405,105.793457 
	C585.979736,90.222694 586.008240,74.651596 586.016174,58.622700 
	C586.347839,59.611855 586.951538,61.057766 586.957397,62.506111 
	C587.021851,78.359764 586.992798,94.213791 586.914612,110.532547 
z"/>
<path fill="#FFFFFF" opacity="1.000000" stroke="none" 
	d="
M830.435547,113.885796 
	C830.002625,97.680191 829.955444,81.260155 829.979126,64.369965 
	C830.365662,64.572586 830.956970,65.245476 830.956665,65.918121 
	C830.950134,81.835884 830.879883,97.753624 830.435547,113.885796 
z"/>
<path fill="#A2D3FF" opacity="1.000000" stroke="none" 
	d="
M168.589935,41.046520 
	C168.133728,41.077412 167.639526,41.033783 167.391663,41.024536 
	C167.744781,40.677708 168.345703,40.045906 168.946777,40.045738 
	C182.506348,40.042007 196.065933,40.107571 209.839966,40.538933 
	C196.384979,40.950397 182.715561,40.983013 168.589935,41.046520 
z"/>
<path fill="#71DED1" opacity="1.000000" stroke="none" 
	d="
M60.928509,109.469147 
	C61.088753,109.099335 61.295620,109.063858 61.815083,108.991043 
	C64.042793,109.637192 65.958900,110.908752 67.872849,110.905525 
	C77.791267,110.888794 87.709114,110.544945 97.628174,110.374603 
	C97.665085,110.373970 97.716850,111.238373 96.965523,111.846825 
	C85.381615,112.007141 74.593864,112.019394 63.806110,112.031654 
	C62.862453,111.288933 61.918797,110.546211 60.928509,109.469147 
z"/>
<path fill="#6DD8CC" opacity="1.000000" stroke="none" 
	d="
M122.246552,106.872513 
	C121.998253,106.415901 121.997437,106.013489 121.996368,105.309311 
	C133.176270,105.133339 144.356415,105.259132 155.814362,105.714417 
	C154.985672,106.346275 153.879166,106.648651 152.078064,106.617744 
	C141.915375,106.449875 132.447311,106.615295 122.979240,106.780708 
	C122.817513,106.829376 122.655777,106.878052 122.246552,106.872513 
z"/>
<path fill="#9FD2FF" opacity="1.000000" stroke="none" 
	d="
M624.459534,58.038429 
	C625.679321,57.712399 627.366211,57.060177 629.058411,57.046074 
	C640.011780,56.954803 650.966370,57.002625 662.378479,57.010315 
	C661.396362,57.344036 659.958313,57.946571 658.515930,57.957024 
	C647.320740,58.038158 636.124817,58.005077 624.459534,58.038429 
z"/>
<path fill="#A1D3FF" opacity="1.000000" stroke="none" 
	d="
M732.436768,118.701019 
	C732.097351,106.413231 732.169678,93.991791 732.542847,81.274597 
	C732.845337,93.508354 732.846924,106.037865 732.436768,118.701019 
z"/>
<path fill="#97E7DD" opacity="1.000000" stroke="none" 
	d="
M64.043015,112.412018 
	C74.593864,112.019394 85.381615,112.007141 96.645569,112.015808 
	C93.807243,112.356133 90.495270,112.911407 87.177666,112.947334 
	C79.546539,113.029961 71.912674,112.859901 64.043015,112.412018 
z"/>
<path fill="#9FD2FF" opacity="1.000000" stroke="none" 
	d="
M657.433472,86.915665 
	C657.891479,86.868835 657.955444,87.356026 657.967834,87.601341 
	C646.963379,87.900246 635.946472,87.953835 624.459839,88.038467 
	C625.515076,87.712341 627.036865,87.062958 628.565735,87.045731 
	C638.034729,86.938980 647.505310,86.974335 657.433472,86.915665 
z"/>
<path fill="#B5EDE7" opacity="1.000000" stroke="none" 
	d="
M33.441261,106.864777 
	C41.785446,106.555550 50.595779,106.297272 59.407837,106.207329 
	C59.927448,106.202019 60.460896,107.552139 60.968864,108.696335 
	C58.895798,108.414627 56.862392,107.179214 54.783974,107.098167 
	C47.833927,106.827194 40.867779,106.969147 33.441261,106.864777 
z"/>
<path fill="#B5EDE7" opacity="1.000000" stroke="none" 
	d="
M63.487579,106.912056 
	C63.025406,106.838959 62.998802,106.409645 62.989258,106.194733 
	C72.446342,106.081955 81.912971,106.184097 91.704590,106.550919 
	C82.669632,106.872108 73.309692,106.928635 63.487579,106.912056 
z"/>
<path fill="#B5ECE6" opacity="1.000000" stroke="none" 
	d="
M123.445595,106.867287 
	C132.447311,106.615295 141.915375,106.449875 151.706726,106.551697 
	C142.657318,106.863907 133.284637,106.908882 123.445595,106.867287 
z"/>
<path fill="#B7EEE8" opacity="1.000000" stroke="none" 
	d="
M8.395728,106.934990 
	C15.739330,106.684967 23.558779,106.486313 31.705002,106.550079 
	C24.311710,106.870445 16.591642,106.928406 8.395728,106.934990 
z"/>
<path fill="#B7EEE8" opacity="1.000000" stroke="none" 
	d="
M5.838337,107.265579 
	C6.029528,106.919075 6.285492,106.897018 6.923295,106.933319 
	C7.196999,107.728378 7.088863,108.465073 6.902270,109.566574 
	C6.516913,109.150925 6.210011,108.370476 5.838337,107.265579 
z"/>
<path fill="#000000" opacity="1.000000" stroke="none" 
	d="
M564.992981,87.728775 
	C561.511658,97.964035 553.817627,101.115768 545.375366,97.189873 
	C538.206299,93.856079 537.976257,81.116577 543.428711,76.959381 
	C546.878845,74.328796 552.476074,73.484917 557.667908,75.832336 
	C562.888000,78.192513 564.991028,81.933418 564.992981,87.728775 
z"/>
<path fill="#000000" opacity="1.000000" stroke="none" 
	d="
M426.183289,102.999336 
	C424.805328,102.373154 423.168732,101.788765 423.131226,101.115326 
	C422.893982,96.854752 423.010834,92.574448 423.010834,87.999321 
	C430.614960,87.999321 437.737274,87.831909 444.847382,88.054726 
	C450.098755,88.219299 452.149231,90.544075 451.999451,95.290573 
	C451.893372,98.652611 447.302246,102.969086 443.753387,102.985725 
	C438.057068,103.012436 432.360504,102.997368 426.183289,102.999336 
z"/>
<path fill="#000000" opacity="1.000000" stroke="none" 
	d="
M441.883850,56.823982 
	C442.170868,56.973560 442.462341,57.115173 442.744202,57.273903 
	C448.835052,60.703869 452.372589,65.488785 441.828613,71.021988 
	C434.998901,71.005226 428.991180,70.961624 422.983429,70.918022 
	C422.983429,70.918022 422.986542,71.013512 422.999573,70.548912 
	C423.035828,65.717323 423.059021,61.350338 423.082214,56.983349 
	C423.082214,56.983349 422.986359,56.986279 423.454590,56.999367 
	C429.909821,56.949627 435.896851,56.886803 441.883850,56.823982 
z"/>
<path fill="#9BD0FF" opacity="1.000000" stroke="none" 
	d="
M441.565063,56.579674 
	C435.896851,56.886803 429.909821,56.949627 423.453003,57.047287 
	C429.070892,56.833202 435.158600,56.584282 441.565063,56.579674 
z"/>
<path fill="#9BD0FF" opacity="1.000000" stroke="none" 
	d="
M423.233093,71.263092 
	C428.991180,70.961624 434.998901,71.005226 441.465668,71.109100 
	C435.777374,71.315636 429.630096,71.461906 423.233093,71.263092 
z"/>
<path fill="#9BD0FF" opacity="1.000000" stroke="none" 
	d="
M422.739014,57.230972 
	C423.059021,61.350338 423.035828,65.717323 423.047302,70.550385 
	C422.853302,66.503830 422.624573,61.991219 422.739014,57.230972 
z"/>
<path fill="#000000" opacity="1.000000" stroke="none" 
	d="
M190.114014,59.058292 
	C197.325439,59.377705 204.909805,58.396358 211.658127,60.331085 
	C221.034729,63.019329 226.100555,69.470474 225.048706,82.946609 
	C224.571915,89.055283 218.957520,98.849869 209.669098,99.939285 
	C203.225342,100.695053 196.745026,101.138992 190.132599,100.882828 
	C190.027451,86.381699 190.070740,72.719994 190.114014,59.058292 
z"/>
<path fill="#A0D2FF" opacity="1.000000" stroke="none" 
	d="
M189.835876,58.893349 
	C190.070740,72.719994 190.027451,86.381699 189.910461,100.505814 
	C189.589188,100.554108 189.122284,100.138107 189.125793,99.726097 
	C189.241959,86.059975 189.403152,72.394211 189.835876,58.893349 
z"/>
<path fill="#000000" opacity="1.000000" stroke="none" 
	d="
M276.998077,81.796928 
	C281.690796,70.826782 290.485748,69.948608 299.968536,80.260025 
	C299.361359,81.339806 298.722504,81.948624 298.083313,81.948975 
	C291.054932,81.952888 284.026489,81.862061 276.998077,81.796928 
z"/>
<path fill="#CCE7FF" opacity="1.000000" stroke="none" 
	d="
M276.889099,82.101944 
	C284.026489,81.862061 291.054932,81.952888 298.083313,81.948975 
	C298.722504,81.948624 299.361359,81.339806 300.088348,80.594795 
	C299.755768,81.114998 299.332153,82.872787 298.915100,82.871239 
	C291.536285,82.843864 284.158325,82.602280 276.889099,82.101944 
z"/>
<path fill="#000000" opacity="1.000000" stroke="none" 
	d="
M707.630981,103.716309 
	C703.966919,105.776497 700.503418,108.355492 696.740295,105.736885 
	C695.126709,104.614052 693.878052,101.990265 693.732056,99.957321 
	C693.495972,96.672234 696.081116,95.163895 699.148376,95.038712 
	C702.939026,94.883995 706.740906,95.001701 712.194702,95.001701 
	C710.492371,98.428177 709.228760,100.971581 707.630981,103.716309 
z"/>
<path fill="#000000" opacity="1.000000" stroke="none" 
	d="
M19.091244,41.971855 
	C19.395826,34.664520 19.700411,27.357185 20.483313,19.540232 
	C35.569592,19.018698 50.177868,18.955931 64.785202,19.045641 
	C67.179710,19.060347 69.570099,19.746252 71.962387,20.121944 
	C71.874374,23.702999 73.746750,25.515089 77.168762,24.930351 
	C81.177307,24.245386 86.359802,27.640408 89.113136,21.015072 
	C90.416931,19.839680 91.586143,19.056677 92.757378,19.053654 
	C108.493881,19.013027 124.230659,19.081163 139.967377,19.122311 
	C139.972443,19.472696 140.124847,19.738661 140.707642,20.440025 
	C140.962631,45.316090 140.934525,69.672333 140.906418,94.028572 
	C140.906418,94.028572 141.023422,94.023376 140.555817,94.013000 
	C100.066803,93.958015 60.045399,93.913391 20.023991,93.868767 
	C19.687071,91.194550 19.350153,88.520325 19.435650,85.233109 
	C19.904688,71.073341 19.964314,57.526562 19.959101,43.979805 
	C19.958843,43.310375 19.393475,42.641167 19.091244,41.971855 
M69.078903,80.057320 
	C69.078903,80.057320 69.104362,80.094276 69.857498,80.023399 
	C70.723923,79.669899 71.590347,79.316406 71.510406,79.349022 
	C73.500198,81.514290 74.906837,84.473106 76.757462,84.783325 
	C81.737579,85.618149 87.395615,86.322533 88.058754,80.026100 
	C91.079170,80.026100 93.803055,80.859108 95.382385,79.868088 
	C99.907761,77.028427 102.877625,73.118553 99.667168,69.050140 
	C102.212463,65.983223 104.880219,64.000275 105.807701,61.397259 
	C107.796516,55.815536 103.067123,53.845242 100.360649,52.576561 
	C100.089005,49.078281 100.768173,46.013142 99.547699,44.306549 
	C95.781227,39.039913 95.001320,39.106129 87.536415,40.889595 
	C86.226982,35.053741 86.165344,34.997585 79.974754,35.022934 
	C78.651085,35.028355 77.327774,35.118053 75.273026,35.254543 
	C74.263008,37.499241 73.252998,39.743935 72.122978,42.255333 
	C71.060478,41.414146 70.249321,40.266548 69.288033,40.122791 
	C67.615326,39.872643 65.092560,39.567406 64.274467,40.486023 
	C62.314331,42.687008 59.639503,45.811153 59.991840,48.150150 
	C60.534382,51.751823 61.881611,54.187241 56.672501,54.191746 
	C56.125854,54.192215 55.295555,55.546711 55.080086,56.395649 
	C53.529835,62.503563 55.153011,65.547981 60.098137,67.310547 
	C60.254940,70.437759 59.738243,73.505928 60.740120,75.952148 
	C61.566029,77.968712 64.190491,79.248650 66.713753,81.009430 
	C67.512856,80.700386 68.311958,80.391342 69.078903,80.057320 
z"/>
<path fill="#000000" opacity="1.000000" stroke="none" 
	d="
M146.921463,87.076614 
	C146.190689,91.306335 145.459915,95.536064 143.914459,99.893555 
	C101.042358,100.059647 58.984936,100.097954 16.927513,100.136261 
	C15.980564,99.607216 15.033613,99.078163 14.027430,97.775879 
	C13.930746,69.989998 13.893294,42.977356 13.855843,15.964714 
	C14.115167,15.648973 14.374490,15.333233 14.989927,15.535457 
	C15.230737,16.864161 15.015234,17.674828 15.014667,18.485647 
	C14.996791,44.050652 14.997988,69.615669 15.007154,95.180687 
	C15.007476,96.078491 15.118559,96.976273 15.225468,98.590523 
	C16.552509,97.414360 17.272327,96.776382 17.992149,96.138412 
	C17.992149,96.138412 18.006210,96.052635 18.188831,96.426811 
	C20.028765,96.867104 21.686060,96.990417 23.343393,96.990929 
	C58.963680,97.002007 94.583992,97.017319 130.204224,96.974213 
	C134.186325,96.969398 138.370468,99.114120 142.117905,96.033005 
	C142.750687,93.318398 143.383484,90.603790 144.417969,87.448418 
	C145.520264,87.030640 146.220856,87.053627 146.921463,87.076614 
z"/>
<path fill="#42A5FE" opacity="1.000000" stroke="none" 
	d="
M146.967117,86.606033 
	C146.220856,87.053627 145.520264,87.030640 144.470520,87.023918 
	C144.064011,66.073036 144.009232,45.105873 143.947754,24.138735 
	C143.928787,17.665058 143.262222,16.989075 136.778702,16.983858 
	C122.299782,16.972204 107.820274,17.038063 93.342827,16.892141 
	C91.928627,16.877890 90.527054,15.611036 89.119621,14.925611 
	C90.576714,14.290572 92.029274,13.115717 93.491600,13.103431 
	C109.300812,12.970593 125.112221,13.101098 140.921448,12.969638 
	C145.441772,12.932050 147.126221,14.771249 147.101334,19.233606 
	C146.976929,41.533691 147.025208,63.834740 146.967117,86.606033 
z"/>
<path fill="#FFFFFF" opacity="1.000000" stroke="none" 
	d="
M17.925184,95.717300 
	C17.272327,96.776382 16.552509,97.414360 15.225468,98.590523 
	C15.118559,96.976273 15.007476,96.078491 15.007154,95.180687 
	C14.997988,69.615669 14.996791,44.050652 15.014667,18.485647 
	C15.015234,17.674828 15.230737,16.864161 15.298685,15.591915 
	C15.251328,15.130409 15.114499,15.028248 15.411330,15.357302 
	C16.853973,16.110044 17.999784,16.533735 19.145596,16.957424 
	C18.469671,18.752306 17.215599,20.543917 17.205425,22.342564 
	C17.074203,45.542374 17.110008,68.743195 17.152727,91.943680 
	C17.154785,93.061615 17.612629,94.178703 17.925184,95.717300 
z"/>
<path fill="#B6EDE7" opacity="1.000000" stroke="none" 
	d="
M141.642532,96.003143 
	C138.370468,99.114120 134.186325,96.969398 130.204224,96.974213 
	C94.583992,97.017319 58.963680,97.002007 23.343393,96.990929 
	C21.686060,96.990417 20.028765,96.867104 18.145452,96.424171 
	C59.002022,96.022667 100.084595,95.997978 141.642532,96.003143 
z"/>
<path fill="#D9F6F3" opacity="1.000000" stroke="none" 
	d="
M17.241802,100.421814 
	C58.984936,100.097954 101.042358,100.059647 143.572586,100.081879 
	C142.798157,100.431686 141.551163,100.972420 140.303619,100.973732 
	C100.041031,101.016335 59.778385,101.008293 19.515747,100.992844 
	C18.862494,100.992592 18.209309,100.806648 17.241802,100.421814 
z"/>
<path fill="#DAF6F3" opacity="1.000000" stroke="none" 
	d="
M20.245186,94.234222 
	C60.045399,93.913391 100.066803,93.958015 140.558411,93.954506 
	C139.666641,94.274002 138.305161,94.960670 136.942612,94.962746 
	C99.091530,95.020470 61.240349,95.011795 23.389187,94.991386 
	C22.414846,94.990860 21.440645,94.735954 20.245186,94.234222 
z"/>
<path fill="#D9F6F3" opacity="1.000000" stroke="none" 
	d="
M13.576049,16.278955 
	C13.893294,42.977356 13.930746,69.989998 13.898041,97.460991 
	C13.548668,96.671921 13.028131,95.424942 13.025849,94.177010 
	C12.979752,68.966545 12.990904,43.755962 13.007249,18.545410 
	C13.007671,17.894611 13.195712,17.243933 13.576049,16.278955 
z"/>
<path fill="#DAF6F3" opacity="1.000000" stroke="none" 
	d="
M141.241531,93.765335 
	C140.934525,69.672333 140.962631,45.316090 140.939423,20.496441 
	C141.261551,21.034630 141.958344,22.035400 141.960907,23.037939 
	C142.019180,45.887154 142.005005,68.736557 141.980545,91.585915 
	C141.979858,92.224785 141.717163,92.863380 141.241531,93.765335 
z"/>
<path fill="#43A6FE" opacity="1.000000" stroke="none" 
	d="
M75.772423,19.946720 
	C75.007988,18.008192 74.243546,16.069662 73.190323,13.398806 
	C78.384895,13.398806 82.376396,13.398806 86.345306,13.398806 
	C87.171524,18.166958 86.977097,18.585720 83.423538,18.617496 
	C82.177666,17.104755 81.289139,16.111408 80.400604,15.118059 
	C79.259521,16.366774 78.118446,17.615488 76.719803,18.972416 
	C76.232300,19.369328 76.002365,19.658024 75.772423,19.946720 
z"/>
<path fill="#7BDBDC" opacity="1.000000" stroke="none" 
	d="
M139.703476,18.796015 
	C124.230659,19.081163 108.493881,19.013027 92.757378,19.053654 
	C91.586143,19.056677 90.416931,19.839680 89.050850,20.626736 
	C87.188728,18.657972 88.545372,18.008047 90.627701,18.023827 
	C106.898521,18.147131 123.168991,18.315357 139.703476,18.796015 
z"/>
<path fill="#7FDCDC" opacity="1.000000" stroke="none" 
	d="
M71.893967,19.714682 
	C69.570099,19.746252 67.179710,19.060347 64.785202,19.045641 
	C50.177868,18.955931 35.569592,19.018698 20.497524,19.080742 
	C21.387600,18.748724 22.740112,18.041370 24.096220,18.034416 
	C38.701893,17.959503 53.308350,17.961821 67.913849,18.056980 
	C69.220398,18.065493 70.521767,18.871689 71.893967,19.714682 
z"/>
<path fill="#000000" opacity="1.000000" stroke="none" 
	d="
M19.592485,16.968472 
	C17.999784,16.533735 16.853973,16.110044 15.360312,15.425762 
	C20.218653,14.143983 25.424841,13.122796 30.631031,12.101609 
	C30.785810,12.806767 30.940590,13.511923 31.095369,14.217080 
	C28.870010,19.637432 23.681747,15.926306 19.592485,16.968472 
z"/>
<path fill="#FFFFFF" opacity="1.000000" stroke="none" 
	d="
M19.052017,42.439949 
	C19.393475,42.641167 19.958843,43.310375 19.959101,43.979805 
	C19.964314,57.526562 19.904688,71.073341 19.474644,84.824135 
	C19.065075,70.988113 19.038931,56.948078 19.052017,42.439949 
z"/>
<path fill="#6EDAD4" opacity="1.000000" stroke="none" 
	d="
M76.977364,18.864204 
	C78.118446,17.615488 79.259521,16.366774 80.400604,15.118059 
	C81.289139,16.111408 82.177666,17.104755 83.131317,18.451447 
	C82.637886,19.459709 82.079338,20.114630 80.981537,20.911659 
	C80.105995,21.286409 79.769691,21.519053 79.433380,21.751694 
	C79.433380,21.751692 79.017227,22.013491 78.486015,22.116653 
	C77.628990,21.101276 77.303177,19.982740 76.977364,18.864204 
M81.597588,17.489090 
	C80.736992,17.665070 79.876404,17.841049 79.222160,18.545008 
	C80.127327,18.364975 81.032501,18.184944 81.597588,17.489090 
z"/>
<path fill="#F3FCFB" opacity="1.000000" stroke="none" 
	d="
M76.719803,18.972416 
	C77.303177,19.982740 77.628990,21.101276 78.280708,22.251854 
	C77.673676,22.448633 76.740746,22.613373 75.807808,22.778112 
	C75.812386,22.048223 75.816956,21.318333 75.796982,20.267582 
	C76.002365,19.658024 76.232300,19.369328 76.719803,18.972416 
z"/>
<path fill="#F0FBFA" opacity="1.000000" stroke="none" 
	d="
M79.669250,21.871401 
	C79.769691,21.519053 80.105995,21.286409 80.685799,21.043579 
	C80.819405,21.520063 80.709511,22.006733 80.599609,22.493401 
	C80.368111,22.325970 80.136612,22.158539 79.669250,21.871401 
z"/>
<path fill="#7BE0D5" opacity="1.000000" stroke="none" 
	d="
M76.004295,35.168922 
	C77.327774,35.118053 78.651085,35.028355 79.974754,35.022934 
	C86.165344,34.997585 86.226982,35.053741 87.536415,40.889595 
	C95.001320,39.106129 95.781227,39.039913 99.547699,44.306549 
	C100.768173,46.013142 100.089005,49.078281 100.360649,52.576561 
	C103.067123,53.845242 107.796516,55.815536 105.807701,61.397259 
	C104.880219,64.000275 102.212463,65.983223 99.667168,69.050140 
	C102.877625,73.118553 99.907761,77.028427 95.382385,79.868088 
	C93.803055,80.859108 91.079170,80.026100 88.058754,80.026100 
	C87.395615,86.322533 81.737579,85.618149 76.757462,84.783325 
	C74.906837,84.473106 73.500198,81.514290 71.510406,79.349022 
	C71.590347,79.316406 70.723923,79.669899 69.363525,79.805237 
	C68.579956,79.109505 68.290367,78.631927 68.334595,77.997467 
	C70.294395,77.295128 72.848930,75.838280 73.374123,76.373337 
	C75.019173,78.049316 75.899078,80.476326 77.207550,82.852264 
	C78.988991,82.852264 81.279381,82.852264 83.525993,82.852264 
	C84.136185,80.553200 84.704803,78.410789 85.122437,76.837242 
	C89.007408,76.357185 92.921631,76.767700 95.923462,75.305336 
	C101.202904,72.733406 94.318344,68.747002 96.244583,65.434830 
	C98.159462,64.759857 100.077240,64.089317 102.025574,63.408089 
	C101.640717,59.759941 103.679153,55.271729 97.568130,54.624058 
	C96.955780,54.559162 95.763878,51.293762 96.283882,50.608238 
	C99.890251,45.853905 96.497307,43.666374 93.539810,41.293060 
	C90.704132,42.826168 86.617577,46.729706 85.506454,42.144756 
	C84.078354,36.251842 80.992722,36.888599 76.850739,36.894058 
	C76.401421,36.222305 76.202858,35.695614 76.004295,35.168922 
z"/>
<path fill="#76DFD3" opacity="1.000000" stroke="none" 
	d="
M68.000786,78.154358 
	C68.290367,78.631927 68.579956,79.109505 68.986954,79.840675 
	C69.104362,80.094276 69.078903,80.057320 68.757080,80.045860 
	C67.629471,80.307945 66.823692,80.581490 66.017914,80.855026 
	C64.190491,79.248650 61.566029,77.968712 60.740120,75.952148 
	C59.738243,73.505928 60.254940,70.437759 60.098137,67.310547 
	C55.153011,65.547981 53.529835,62.503563 55.080086,56.395649 
	C55.295555,55.546711 56.125854,54.192215 56.672501,54.191746 
	C61.881611,54.187241 60.534382,51.751823 59.991840,48.150150 
	C59.639503,45.811153 62.314331,42.687008 64.274467,40.486023 
	C65.092560,39.567406 67.615326,39.872643 69.288033,40.122791 
	C70.249321,40.266548 71.060478,41.414146 72.122978,42.255333 
	C73.252998,39.743935 74.263008,37.499241 75.638657,35.211731 
	C76.202858,35.695614 76.401421,36.222305 76.686478,37.246075 
	C74.927094,44.092709 73.147873,45.768642 70.090919,43.320038 
	C66.609879,40.531738 65.513893,43.312756 63.608501,44.864471 
	C61.373936,46.684265 61.688049,48.321476 63.572071,50.258759 
	C64.362511,51.071541 64.554443,52.466381 65.203682,54.047714 
	C62.617397,55.005211 60.405777,55.824001 58.133369,56.665298 
	C58.133369,59.260387 58.133369,61.893677 58.133369,64.220535 
	C60.641655,65.243408 62.920399,66.172676 65.235268,67.116676 
	C61.636410,74.796989 62.612606,78.064743 68.000786,78.154358 
z"/>
<path fill="#7BE0D5" opacity="1.000000" stroke="none" 
	d="
M66.365829,80.932228 
	C66.823692,80.581490 67.629471,80.307945 68.773163,80.058350 
	C68.311958,80.391342 67.512856,80.700386 66.365829,80.932228 
z"/>
<path fill="#A0D9F4" opacity="1.000000" stroke="none" 
	d="
M81.937668,18.004911 
	C81.032501,18.184944 80.127327,18.364975 79.484650,18.283314 
	C80.477318,18.016050 81.207489,18.010479 81.937668,18.004911 
z"/>
<path fill="#4CB2F4" opacity="1.000000" stroke="none" 
	d="
M81.767624,17.747000 
	C81.207489,18.010479 80.477318,18.016050 79.381470,18.019325 
	C79.876404,17.841049 80.736992,17.665070 81.767624,17.747000 
z"/>
<path fill="#000000" opacity="1.000000" stroke="none" 
	d="
M68.334595,77.997467 
	C62.612606,78.064743 61.636410,74.796989 65.235268,67.116676 
	C62.920399,66.172676 60.641655,65.243408 58.133369,64.220535 
	C58.133369,61.893677 58.133369,59.260387 58.133369,56.665298 
	C60.405777,55.824001 62.617397,55.005211 65.203682,54.047714 
	C64.554443,52.466381 64.362511,51.071541 63.572071,50.258759 
	C61.688049,48.321476 61.373936,46.684265 63.608501,44.864471 
	C65.513893,43.312756 66.609879,40.531738 70.090919,43.320038 
	C73.147873,45.768642 74.927094,44.092709 76.937241,37.391136 
	C80.992722,36.888599 84.078354,36.251842 85.506454,42.144756 
	C86.617577,46.729706 90.704132,42.826168 93.539810,41.293060 
	C96.497307,43.666374 99.890251,45.853905 96.283882,50.608238 
	C95.763878,51.293762 96.955780,54.559162 97.568130,54.624058 
	C103.679153,55.271729 101.640717,59.759941 102.025574,63.408089 
	C100.077240,64.089317 98.159462,64.759857 96.244583,65.434830 
	C94.318344,68.747002 101.202904,72.733406 95.923462,75.305336 
	C92.921631,76.767700 89.007408,76.357185 85.122437,76.837242 
	C84.704803,78.410789 84.136185,80.553200 83.525993,82.852264 
	C81.279381,82.852264 78.988991,82.852264 77.207550,82.852264 
	C75.899078,80.476326 75.019173,78.049316 73.374123,76.373337 
	C72.848930,75.838280 70.294395,77.295128 68.334595,77.997467 
M76.973030,49.961777 
	C71.256355,52.478302 68.780716,57.097427 70.031616,62.913342 
	C71.135956,68.047844 78.181801,71.619240 83.931404,69.958878 
	C88.291306,68.699829 91.472343,62.341274 90.010391,57.807629 
	C88.046852,51.718529 85.531204,50.103352 76.973030,49.961777 
z"/>
<path fill="#7AE0D4" opacity="1.000000" stroke="none" 
	d="
M77.390930,49.967690 
	C85.531204,50.103352 88.046852,51.718529 90.010391,57.807629 
	C91.472343,62.341274 88.291306,68.699829 83.931404,69.958878 
	C78.181801,71.619240 71.135956,68.047844 70.031616,62.913342 
	C68.780716,57.097427 71.256355,52.478302 77.390930,49.967690 
M74.427521,65.934898 
	C75.383110,66.529053 76.271141,67.310890 77.306450,67.683571 
	C81.003807,69.014526 86.213417,66.702293 87.648926,62.692898 
	C89.182915,58.408459 87.106743,55.206844 83.442223,52.983219 
	C79.524673,50.606056 75.876038,52.332607 74.324989,55.557663 
	C73.049522,58.209713 74.036751,61.949978 74.427521,65.934898 
z"/>
<path fill="#000000" opacity="1.000000" stroke="none" 
	d="
M74.224327,65.571411 
	C74.036751,61.949978 73.049522,58.209713 74.324989,55.557663 
	C75.876038,52.332607 79.524673,50.606056 83.442223,52.983219 
	C87.106743,55.206844 89.182915,58.408459 87.648926,62.692898 
	C86.213417,66.702293 81.003807,69.014526 77.306450,67.683571 
	C76.271141,67.310890 75.383110,66.529053 74.224327,65.571411 
z"/>
</svg>